<svg id="Layer_1" data-name="Layer 1" xmlns="http://www.w3.org/2000/svg" viewBox="0 0 500 500"><defs><style>.cls-1,.cls-2{fill:#131b39;}.cls-2{stroke:#000;stroke-miterlimit:10;}.cls-3{fill:#fff;}</style></defs><path class="cls-1" d="M207.06,289.37l-42.73,24.1Q150.19,337.4,136,358.69t-25.22,35.18q-11,13.89-19,21.2t-11.88,7.31a10.91,10.91,0,0,1-8.36-3.45,11.53,11.53,0,0,1-3.21-8.11q0-17.35,19.52-43.46t61.77-55.5q18.31-35.19,30.2-63.94t18.15-49.16q6.27-20.4,8.76-32.77t2.49-15.74q0-6.9-5.3-6.91-4.33,0-12.77,5t-18.24,14.86a145.58,145.58,0,0,0-18.31,22.89A188.57,188.57,0,0,0,139,214.91a227.54,227.54,0,0,0-10.77,29.48q-3.76,13.49-3.77,21.68,0,2.1.64,9.16,1.44-2.25,3.53-5.46a46.23,46.23,0,0,1,5.3-6.59,36.61,36.61,0,0,1,6.75-5.62,18.36,18.36,0,0,1,5-2.65c1.93-.7,2.89-.62,2.89.24q0,1-9.15,12.13t-15.91,20.16a44.79,44.79,0,0,1-10.28,9.64q-6.42,4.5-10.44,4.5a6.13,6.13,0,0,1-6.35-4.5q-1.52-4.5-1.52-14.3,0-23.61,8.11-52.53t21.77-50.76A146.17,146.17,0,0,1,152,148.08Q168,134,183.2,126.15t23.86-7.87q10.6,0,16.39,6.67t5.78,18.39a70.81,70.81,0,0,1-1.37,13q-1.37,7.23-3.45,14.62t-7.23,23.78q-5.15,16.38-6.75,21.69a254.32,254.32,0,0,1-13.09,34q-8.11,17.43-23.05,46.19l32.77-17.67Z"/><path class="cls-2" d="M373.65,282.14a41.21,41.21,0,0,0-12-13.33,69.82,69.82,0,0,0-18.07-9.56,116.16,116.16,0,0,0-21-5.38A170.11,170.11,0,0,1,262,232.82c-1.61-.86-3.32-2.67-5.14-5.46a14.73,14.73,0,0,1-2.73-8A89.22,89.22,0,0,1,258.87,191q4.74-14.22,12.13-22.25,11.88-13.33,42.81-23.29t69.64-10q23.13,0,35.74,3.53t12.61,10.93q0,12-3.29,18.63c-2.2,4.4-4.55,7.31-7.07,8.76a111.24,111.24,0,0,1-13.25,5.86,137.67,137.67,0,0,0-17.59,7.39A134.86,134.86,0,0,0,377.83,198c-3.54,2.36-5.73,3.54-6.59,3.54-1.07,0-1.61-.43-1.61-1.29q0-2.73,5.71-8.27a55.41,55.41,0,0,1,14.05-9.72q8.83-4.66,8.84-5.95,0-2.09-9.8-2.08a266.79,266.79,0,0,0-54.94,5.3q-25.23,5.3-39.76,14t-14.54,17.67q0,5.63,6,8t26.59,7.79a258.74,258.74,0,0,1,36.79,12.53q23.3,10,34.54,20.72t11.24,24.1A42.4,42.4,0,0,1,390,302.62,54.83,54.83,0,0,1,377,319.57a74.24,74.24,0,0,1-19.6,12.69,159.6,159.6,0,0,1-23.85,7.55,260.1,260.1,0,0,1-31.17,5.54,269.85,269.85,0,0,1-32,2q-28.11,0-45.22-5.3T208,326q0-4.83,5.79-15t13.65-13.74a43.81,43.81,0,0,1,13.33-3.13q6.44-.41,6.43,1.52a1.38,1.38,0,0,1-.48,1,4.19,4.19,0,0,1-1.13.8l-1.28.64q-3.21,1.29-5.22,2a18.44,18.44,0,0,0-3.21,1.45,2.23,2.23,0,0,0-1.21,2q0,3.36,33.25,3.37,28.92,0,47.39-2.09A131.59,131.59,0,0,0,348,297.24,91.14,91.14,0,0,0,373.65,282.14Z"/><path class="cls-1" d="M364.68,476.89q-50.82-.39-101.65.44c-33.89.57-67.77,1.56-101.66,2.74l-25.41.86-12.71.43-6.35.22-3.18.11c-1.06,0-2.25,0-3.37,0-2.29.06-4.56-.13-6.85-.21s-4.56-.37-6.83-.75a90.53,90.53,0,0,1-13.46-2.93A95.52,95.52,0,0,1,58.13,466.2,96.43,96.43,0,0,1,22.5,423.89a94.6,94.6,0,0,1-4.66-13.35,104.09,104.09,0,0,1-2.67-13.91c-.21-2.36-.5-4.71-.55-7.07l-.08-1.78c0-.6,0-1.18,0-1.69l-.05-3.18-.22-12.7L10.85,166.9l-.7-50.83,0-3.23.05-3.71c0-1.23.1-2.47.17-3.7s.13-2.47.29-3.7a109.17,109.17,0,0,1,2.52-14.67,114.52,114.52,0,0,1,4.63-14.18,113.88,113.88,0,0,1,6.64-13.37A104.56,104.56,0,0,1,67.68,19.18a109,109,0,0,1,13.93-5.73A105.16,105.16,0,0,1,96.25,9.79a102.22,102.22,0,0,1,15-1.52l1.89-.07,1.6,0,3.18,0,6.35-.1c67.77-.85,135.54-2.72,203.31-4L353,3.66q12.7-.18,25.42-.3l6.35-.06,1.59,0h1.87l3.94.08a114,114,0,0,1,15.72,1.84,108.77,108.77,0,0,1,74.56,54,105.9,105.9,0,0,1,6.64,14.34,101.28,101.28,0,0,1,4.45,15.16c.61,2.56,1,5.17,1.41,7.76s.67,5.21.79,7.83c.07,1.31.19,2.62.21,3.93l.05,3.92v1l0,.8,0,1.59-.06,3.18q-1,50.82-3.61,101.65l-1.39,25.41-1.52,25.42-3.31,50.82-3.24,50.83-.74,12.71c-.05,1-.15,2.19-.24,3.33s-.15,2.27-.3,3.41c-.27,2.26-.54,4.52-1,6.75s-.93,4.45-1.42,6.66-1.18,4.38-1.95,6.5-1.53,4.25-2.34,6.35c-.42,1-.9,2.06-1.35,3.09l-.69,1.53-.76,1.51a95.39,95.39,0,0,1-35.49,38.69,93.22,93.22,0,0,1-49.78,13.69v-4.2a94.13,94.13,0,0,0,12.33-1.09c1-.12,2-.37,3.05-.55s2-.39,3-.67l3-.75,2.95-.9a79,79,0,0,0,11.41-4.62,77.14,77.14,0,0,0,10.57-6.23,81.76,81.76,0,0,0,29.61-37.54,72.73,72.73,0,0,0,3.48-11.4c.48-1.92.74-3.89,1.1-5.83.21-2,.52-3.91.61-5.88s.2-3.93.23-5.89c0-1,0-2-.07-2.94s-.06-1.93-.14-3l-.74-12.71-3.24-50.83-3.31-50.82-1.52-25.42-1.39-25.41q-2.61-50.82-3.61-101.65l-.06-3.18,0-1.59,0-.78,0-.61-.11-2.43c0-.81-.15-1.61-.22-2.42-.1-1.61-.42-3.19-.63-4.79s-.58-3.16-1-4.7-.86-3.09-1.32-4.62c-.24-.77-.54-1.51-.8-2.26l-.4-1.13L449,89.13A68.77,68.77,0,0,0,433,65.53a63.22,63.22,0,0,0-7.38-6.1,65.22,65.22,0,0,0-8.12-5,68.16,68.16,0,0,0-17.91-6.35,73.51,73.51,0,0,0-9.49-1.22l-2.41-.08-.6,0h-.7l-1.59,0-6.35-.06q-12.72-.11-25.42-.3l-25.41-.41C259.81,44.69,192,42.82,124.27,42l-6.35-.1-3.18,0-1.58,0-1.29,0a69.31,69.31,0,0,0-10.28.74,72.22,72.22,0,0,0-10.06,2.21,77.62,77.62,0,0,0-9.66,3.66A72.71,72.71,0,0,0,51,75.63a82.55,82.55,0,0,0-4.92,9.24,79.92,79.92,0,0,0-3.53,9.87A76.35,76.35,0,0,0,40.5,105c-.16.87-.18,1.75-.28,2.63s-.19,1.75-.2,2.63L39.91,113l-.06,3.12-.7,50.83L35.78,370.21l-.22,12.7-.05,3.18c0,.55,0,1,0,1.48V389c0,1.87.12,3.73.2,5.61a83.53,83.53,0,0,0,1.67,11.1,82,82,0,0,0,3.25,10.78,80.69,80.69,0,0,0,70.12,51.67c1,.05,1.92.13,3,.17l3.18.11,6.35.22,12.71.43,25.41.86c33.89,1.18,67.77,2.17,101.66,2.74s67.77.7,101.65.44Z"/><path class="cls-3" d="M363.52,454.47A20.53,20.53,0,1,1,343,475,20.53,20.53,0,0,1,363.52,454.47Z"/><path class="cls-1" d="M363.52,451.74A23.26,23.26,0,1,0,386.78,475a23.29,23.29,0,0,0-23.26-23.26Zm0,41.06a17.8,17.8,0,1,1,17.8-17.8,17.81,17.81,0,0,1-17.8,17.8Z"/></svg>