<?xml version="1.0" encoding="utf-8"?>
<!-- Generator: Adobe Illustrator 24.2.1, SVG Export Plug-In . SVG Version: 6.00 Build 0)  -->
<svg version="1.1" id="Layer_1" xmlns="http://www.w3.org/2000/svg" xmlns:xlink="http://www.w3.org/1999/xlink" x="0px" y="0px"
	 viewBox="0 0 2000 2000" style="enable-background:new 0 0 2000 2000;" xml:space="preserve">
<style type="text/css">
	.st0{fill:#131B39;}
	.st1{fill:#131B39;stroke:#000000;stroke-miterlimit:10;}
	.st2{display:none;}
	.st3{fill:none;stroke:#131B39;stroke-width:170;stroke-linejoin:bevel;stroke-miterlimit:15;}
</style>
<path class="st0" d="M833.0299072,1153.6208496l-181.9451904,102.6025391
	c-40.1287231,67.9372559-80.3696899,132.1158447-120.7229614,192.5438232
	c-40.3573914,60.4155273-76.1618042,110.3487549-107.3882751,149.7956543
	c-31.2389526,39.4384766-58.2575684,69.5339355-81.0557861,90.286499
	c-22.8065491,20.7441406-39.6713562,31.1225586-50.6151733,31.1225586c-14.5862122,0-26.4406433-4.9064941-35.5674133-14.7069092
	c-9.1143036-9.8085938-13.6797791-21.3179932-13.6797791-34.5402832c0-49.2471924,27.7005005-110.9267578,83.1056824-185.0220947
	c55.4051514-74.1077881,143.0638123-152.8725586,262.9967651-236.3192139
	c51.9831543-99.8664551,94.8395386-190.6020508,128.5940552-272.2316284
	c33.737915-81.6212769,59.5049438-151.3881226,77.2886353-209.3026123
	c17.7836914-57.906189,30.2036133-104.4174194,37.2805176-139.5357666
	c7.0643921-35.1079712,10.5986938-57.4571533,10.5986938-67.032959c0-19.600769-7.5217896-29.4115601-22.5695801-29.4115601
	c-12.3117676,0-30.4364014,7.0748291-54.3781128,21.2036743c-23.9417114,14.1392212-49.8251343,35.2264404-77.6337891,63.2700195
	c-27.8210449,28.0435181-53.8126221,60.5339966-77.9746704,97.4694214
	c-24.1745605,36.4884033-46.1702881,77.4091797-66.0080566,122.7790527
	c-19.8335571,45.3781738-35.1183472,87.2095947-45.8251648,125.5130005
	c-10.7192688,38.3033447-16.0747681,69.0848999-16.0747681,92.3363647c0,5.9334717,0.9064331,18.9312744,2.7359619,38.989502
	c4.1039429-6.378418,9.1143188-14.1289063,15.04776-23.2556152c5.9209595-9.1143799,13.442749-18.4698486,22.569519-28.0415039
	c9.1184692-9.5799561,18.6943359-17.5509033,28.7316895-23.9417114c5.9209595-4.5529785,12.9937134-8.315918,21.2015991-11.284729
	c8.2078247-2.9605103,12.3117676-2.6195679,12.3117676,1.0228271c0,2.7359619-12.9937134,19.958374-38.9852905,51.6422119
	c-25.9957275,31.7004395-48.5652466,60.3115234-67.7169189,85.8416748
	c-10.9438477,14.6027832-25.542511,28.2825928-43.7752991,41.043457
	c-18.2452393,12.769165-33.0684509,19.1516113-44.4613342,19.1516113c-13.6797791,0-22.6901245-6.3824463-27.0185852-19.1516113
	c-4.336792-12.7608643-6.4989319-33.0560303-6.4989319-60.8770752c0-67.0308838,11.5134583-141.5877686,34.5445251-223.6685181
	c23.0186157-82.0786133,53.916626-154.1219482,92.6815186-216.1425171
	c31.4634705-49.2471924,69.9913635-93.8145142,115.5961609-133.7208252
	c45.5923462-39.895874,89.9455566-71.0184021,133.03479-93.3654785
	c43.0933838-22.3367004,76.9518433-33.5175476,101.5754395-33.5175476c30.09552,0,53.3511353,9.4698181,69.7668457,28.3865967
	c16.4157104,18.9271545,24.6235962,45.0372009,24.6235962,78.3177185c0,16.4157715-1.9459229,34.8834229-5.8128662,55.4030762
	c-3.8793945,20.5217896-8.7858276,41.2763672-14.7067871,62.2450562
	c-5.9293213,20.979126-16.1912231,54.7191162-30.7774048,101.2303467
	c-14.6028442,46.5133057-24.1787109,77.2927856-28.7316895,92.3405762
	c-14.137146,46.9707031-32.7233887,95.1929321-55.7420044,144.6646118
	c-23.0352173,49.4821777-55.7460938,115.0286865-98.1575317,196.6499023l139.5378418-75.2387695V1153.6208496z"/>
<path class="st1" d="M1542.3365479,1122.8435059c-11.4052734-20.96875-28.5029297-39.895874-51.3011475-56.7731934
	c-22.8066406-16.8647461-48.4571533-30.4364014-76.9477539-40.6942139
	c-28.5070801-10.2619019-58.2575684-17.8959351-89.2636719-22.9187622
	c-92.1159668-13.6777344-178.0739746-43.5383301-257.8657227-89.6025391
	c-6.8441162-3.6444702-14.1413574-11.3908081-21.8918457-23.2556152
	c-7.7587891-11.852356-11.6257324-23.2556152-11.6257324-34.1994629c0-40.1204224,6.7235107-80.3696899,20.1787109-120.7250366
	c13.442749-40.3553467,30.6610107-71.9269409,51.6422119-94.7334595
	c33.737915-37.8439331,94.4985352-70.9019775,182.2861328-99.180481
	c87.7750244-28.2680664,186.614502-42.4072876,296.5101318-42.4072876c65.6669922,0,116.3861084,5.0228577,152.1905518,15.0477905
	c35.7919922,10.0352783,53.6962891,25.5424805,53.6962891,46.5112305c0,34.2014771-4.6818848,60.6525269-14.0249023,79.3447266
	c-9.3513184,18.7026367-19.3845215,31.1204834-30.0955811,37.2763672
	c-10.7192383,6.157959-29.5299072,14.4822388-56.4279785,24.9666138
	c-28.7275391,10.0353394-53.696167,20.5196533-74.8978271,31.463501
	c-21.2056885,10.9437866-39.3303223,21.4406738-54.3781738,31.4655762
	c-15.0477295,10.0352783-24.3990479,15.0477295-28.0455322,15.0477295c-4.5612793,0-6.8399658-1.8170166-6.8399658-5.4719238
	c0-7.7484131,8.0915527-19.4946899,24.2827148-35.2264404c16.1787109-15.7317505,36.1329346-29.5196533,59.8499756-41.3823853
	c25.0727539-13.2202759,37.62146-21.65271,37.62146-25.3075562c0-5.9209595-13.916748-8.8918457-41.7253418-8.8918457
	c-84.3654785,0-162.3443604,7.5238647-233.9283447,22.5715942c-71.5963135,15.0477905-128.024292,34.8834229-169.288208,59.507019
	c-41.2763672,24.6256714-61.9040527,49.7087402-61.9040527,75.2408447c0,15.9666748,8.5529785,27.25354,25.6506348,33.8585205
	c17.1018066,6.6153564,54.8271484,17.6755981,113.2011719,33.1723633
	c58.3656006,15.5072632,110.5732422,33.2930298,156.635498,53.3532104
	c66.1160889,28.2785034,115.1387939,57.6900024,147.0595703,88.2344971
	c31.9125977,30.5529785,47.8792725,64.7565918,47.8792725,102.5983887c0,25.9915771-6.2702637,52.1037598-18.8066406,78.3198242
	c-12.5487061,26.2285156-30.8979492,50.2741699-55.064209,72.1618652
	c-24.1744385,21.8875732-51.9831543,39.895874-83.4465332,54.0371094
	c-26.9105225,11.3929443-60.769043,22.1121826-101.5754395,32.1453857
	c-40.8148193,10.0249023-85.0474854,17.8918457-132.6938477,23.5966797
	c-47.6546631,5.6964111-93.1430664,8.5528564-136.4567871,8.5528564c-79.8042603,0-143.9827881-7.5258789-192.5480347-22.5736084
	c-48.5611572-15.0477295-72.84375-37.8543701-72.84375-68.3989258c0-13.6798096,8.2078247-34.9893799,24.6235962-63.9539795
	c16.4157104-28.9520264,35.7919312-48.4447021,58.1411133-58.4820557
	c19.600708-7.7463379,38.5278931-12.1954346,56.7689819-13.3388672c18.2327881-1.1309814,27.3595581,1.0270996,27.3595581,6.4990234
	c0,1.3679199-0.6819458,2.7359619-2.0499268,4.1038818s-2.9729614,2.5114746-4.789978,3.4219971
	c-1.8253784,0.9189453-3.6548462,1.8254395-5.4719238,2.7359619c-9.12677,3.6549072-16.5321655,6.494751-22.2285767,8.5488281
	c-5.7089233,2.0499268-10.2619019,4.1038818-13.6798096,6.1538086c-3.4219971,2.0540771-5.1309204,4.9064941-5.1309204,8.5529785
	c0,9.5758057,47.1972656,14.3616943,141.5877075,14.3616943c82.0828857,0,149.3382568-2.9604492,201.7788086-8.8897705
	c52.4362793-5.9210205,98.7230225-16.6402588,138.8518066-32.1495361
	C1473.0146484,1171.6416016,1509.505127,1150.2030029,1542.3365479,1122.8435059z"/>
<path class="st2" d="M1054.4375,1018.7822876"/>
<path class="st3" d="M1400.333374,1905.333374H182.8888855c-48.7237854,0-88.2222214-39.4985352-88.2222214-88.22229V629.333313
	c0-293.0791016,237.5875549-530.666626,530.666626-530.666626h1187.777832c48.7237549,0,88.22229,39.498436,88.22229,88.2222214
	v1217.444458C1901.333374,1681.0279541,1677.0279541,1905.333374,1400.333374,1905.333374z"/>
</svg>
